<svg width="16" height="16" viewBox="0 0 16 16" fill="none" xmlns="http://www.w3.org/2000/svg">
<path d="M10.244 2.29199L12.3847 5.99999H14.6667V7.33333H13.8887L13.384 13.3887C13.3702 13.5553 13.2942 13.7106 13.1712 13.8238C13.0482 13.937 12.8872 13.9999 12.72 14H3.28004C3.11287 13.9999 2.95184 13.937 2.82885 13.8238C2.70587 13.7106 2.62992 13.5553 2.61604 13.3887L2.11071 7.33333H1.33337V5.99999H3.61471L5.75604 2.29199L6.91071 2.95866L5.15471 5.99999H10.8447L9.08937 2.95866L10.244 2.29199ZM12.5507 7.33333H3.44871L3.89337 12.6667H12.106L12.5507 7.33333ZM8.66671 8.66666V11.3333H7.33337V8.66666H8.66671ZM6.00004 8.66666V11.3333H4.66671V8.66666H6.00004ZM11.3334 8.66666V11.3333H10V8.66666H11.3334Z" fill="#ECECEC"/>
</svg>
