<svg width="14" height="14" viewBox="0 0 14 14" fill="none" xmlns="http://www.w3.org/2000/svg">
<path d="M11.0833 4.08335C11.0833 3.44169 10.5583 2.91669 9.91666 2.91669H8.16666V4.08335H9.91666V5.62919L7.88666 8.16669H5.83332V5.25002H3.49999C2.21082 5.25002 1.16666 6.29419 1.16666 7.58335V9.33335H2.33332C2.33332 10.3017 3.11499 11.0834 4.08332 11.0834C5.05166 11.0834 5.83332 10.3017 5.83332 9.33335H8.44666L11.0833 6.03752V4.08335ZM2.33332 8.16669V7.58335C2.33332 6.94169 2.85832 6.41669 3.49999 6.41669H4.66666V8.16669H2.33332ZM4.08332 9.91669C3.76249 9.91669 3.49999 9.65419 3.49999 9.33335H4.66666C4.66666 9.65419 4.40416 9.91669 4.08332 9.91669Z" fill="white"/>
<path d="M2.91666 3.5H5.83332V4.66667H2.91666V3.5ZM11.0833 7.58333C10.115 7.58333 9.33332 8.365 9.33332 9.33333C9.33332 10.3017 10.115 11.0833 11.0833 11.0833C12.0517 11.0833 12.8333 10.3017 12.8333 9.33333C12.8333 8.365 12.0517 7.58333 11.0833 7.58333ZM11.0833 9.91667C10.7625 9.91667 10.5 9.65417 10.5 9.33333C10.5 9.0125 10.7625 8.75 11.0833 8.75C11.4042 8.75 11.6667 9.0125 11.6667 9.33333C11.6667 9.65417 11.4042 9.91667 11.0833 9.91667Z" fill="white"/>
</svg>
