<svg width="156" height="91" viewBox="0 0 156 91" fill="none" xmlns="http://www.w3.org/2000/svg">
<path d="M17.3906 37.1953C14.9531 37.1953 12.6719 36.8047 10.5469 36.0234C8.42188 35.2266 6.57031 34.0781 4.99219 32.5781C3.44531 31.1094 2.22656 29.2969 1.33594 27.1406C0.445312 24.9688 0 22.5859 0 19.9922C0 17.4141 0.445312 15.0312 1.33594 12.8438C2.24219 10.6406 3.50781 8.73438 5.13281 7.125C6.72656 5.54688 8.64062 4.32812 10.875 3.46875C13.1094 2.59375 15.5 2.15625 18.0469 2.15625C19.8906 2.15625 21.5703 2.38281 23.0859 2.83594C24.6016 3.27344 25.8828 3.77344 26.9297 4.33594L28.3828 3.04688H30.4219L30.6328 15.1875H28.5703C27.3984 11.4844 25.9922 8.76562 24.3516 7.03125C22.7109 5.29688 20.7109 4.42969 18.3516 4.42969C15.4141 4.42969 13.1797 5.72656 11.6484 8.32031C10.1172 10.8984 9.35156 14.5234 9.35156 19.1953C9.35156 21.8359 9.60938 24.0938 10.125 25.9688C10.6562 27.8281 11.3438 29.3281 12.1875 30.4688C13.0938 31.6562 14.1641 32.5312 15.3984 33.0938C16.6328 33.6406 18 33.9141 19.5 33.9141C21.6875 33.9141 23.6328 33.3203 25.3359 32.1328C27.0547 30.9453 28.6172 29.1484 30.0234 26.7422L32.0391 27.9609C31.3672 29.3359 30.6016 30.5703 29.7422 31.6641C28.8828 32.7422 27.8906 33.6719 26.7656 34.4531C25.5312 35.3125 24.1641 35.9844 22.6641 36.4688C21.1797 36.9531 19.4219 37.1953 17.3906 37.1953Z" fill="#321D0B"/>
<path d="M57.9844 15.8203C59.1406 16.8984 60.0234 18.1875 60.6328 19.6875C61.2422 21.1875 61.5469 22.8125 61.5469 24.5625C61.5469 26.2969 61.2422 27.9375 60.6328 29.4844C60.0391 31.0156 59.1641 32.3281 58.0078 33.4219C56.7734 34.5938 55.2969 35.4922 53.5781 36.1172C51.875 36.7422 49.9219 37.0547 47.7188 37.0547C45.8125 37.0547 44.0547 36.7812 42.4453 36.2344C40.8516 35.6875 39.4375 34.8672 38.2031 33.7734C37.0156 32.7266 36.0781 31.4375 35.3906 29.9062C34.7031 28.3594 34.3594 26.6328 34.3594 24.7266C34.3594 22.8516 34.6562 21.1875 35.25 19.7344C35.8594 18.2656 36.7656 16.9609 37.9688 15.8203C39.125 14.7266 40.5469 13.8828 42.2344 13.2891C43.9375 12.6797 45.8359 12.375 47.9297 12.375C50.1172 12.375 52.0391 12.6797 53.6953 13.2891C55.3672 13.8828 56.7969 14.7266 57.9844 15.8203ZM51.9844 32.0625C52.3281 31.1875 52.5781 30.125 52.7344 28.875C52.9062 27.625 52.9922 26.1719 52.9922 24.5156C52.9922 23.4219 52.9141 22.1719 52.7578 20.7656C52.6016 19.3594 52.3672 18.25 52.0547 17.4375C51.6797 16.4531 51.1562 15.6797 50.4844 15.1172C49.8281 14.5547 48.9922 14.2734 47.9766 14.2734C46.8672 14.2734 45.9766 14.5781 45.3047 15.1875C44.6484 15.7969 44.1406 16.5859 43.7812 17.5547C43.4531 18.4453 43.2266 19.4922 43.1016 20.6953C42.9766 21.8828 42.9141 23.125 42.9141 24.4219C42.9141 26.125 42.9688 27.5391 43.0781 28.6641C43.1875 29.7734 43.4531 30.8906 43.875 32.0156C44.2344 32.9844 44.75 33.75 45.4219 34.3125C46.0938 34.875 46.9453 35.1562 47.9766 35.1562C48.9141 35.1562 49.7188 34.8984 50.3906 34.3828C51.0625 33.8516 51.5938 33.0781 51.9844 32.0625Z" fill="#321D0B"/>
<path d="M86.7422 3.98438C86.7422 4.375 86.6797 4.80469 86.5547 5.27344C86.4297 5.74219 86.2266 6.14062 85.9453 6.46875C85.6172 6.85938 85.25 7.15625 84.8438 7.35938C84.4375 7.5625 83.8281 7.66406 83.0156 7.66406C81.7812 7.66406 80.8125 7.23438 80.1094 6.375C79.4062 5.51562 78.6562 4.08594 77.8594 2.08594C77.2344 2.35156 76.7266 3.03906 76.3359 4.14844C75.9453 5.25781 75.75 7.64062 75.75 11.2969V13.1484H82.2188V15.6797H75.7969V31.8281C75.7969 32.4375 75.9375 32.9141 76.2188 33.2578C76.5 33.5859 76.8672 33.8281 77.3203 33.9844C77.6953 34.1094 78.1875 34.2344 78.7969 34.3594C79.4062 34.4688 79.9531 34.5469 80.4375 34.5938V36.3047H64.6172V34.5938C65.0234 34.5625 65.4141 34.5234 65.7891 34.4766C66.1797 34.4297 66.5234 34.3516 66.8203 34.2422C67.3203 34.0547 67.6562 33.7891 67.8281 33.4453C68.0156 33.0859 68.1094 32.6172 68.1094 32.0391V15.6797H63.3516V13.1484H68.1094C68.1094 11.4766 68.3516 9.85938 68.8359 8.29688C69.3203 6.71875 70.0703 5.3125 71.0859 4.07812C72.0703 2.85938 73.3672 1.875 74.9766 1.125C76.5859 0.375 78.4766 0 80.6484 0C82.5859 0 84.0859 0.367188 85.1484 1.10156C86.2109 1.83594 86.7422 2.79688 86.7422 3.98438Z" fill="#321D0B"/>
<path d="M105.633 3.98438C105.633 4.375 105.57 4.80469 105.445 5.27344C105.32 5.74219 105.117 6.14062 104.836 6.46875C104.508 6.85938 104.141 7.15625 103.734 7.35938C103.328 7.5625 102.719 7.66406 101.906 7.66406C100.672 7.66406 99.7031 7.23438 99 6.375C98.2969 5.51562 97.5469 4.08594 96.75 2.08594C96.125 2.35156 95.6172 3.03906 95.2266 4.14844C94.8359 5.25781 94.6406 7.64062 94.6406 11.2969V13.1484H101.109V15.6797H94.6875V31.8281C94.6875 32.4375 94.8281 32.9141 95.1094 33.2578C95.3906 33.5859 95.7578 33.8281 96.2109 33.9844C96.5859 34.1094 97.0781 34.2344 97.6875 34.3594C98.2969 34.4688 98.8438 34.5469 99.3281 34.5938V36.3047H83.5078V34.5938C83.9141 34.5625 84.3047 34.5234 84.6797 34.4766C85.0703 34.4297 85.4141 34.3516 85.7109 34.2422C86.2109 34.0547 86.5469 33.7891 86.7188 33.4453C86.9062 33.0859 87 32.6172 87 32.0391V15.6797H82.2422V13.1484H87C87 11.4766 87.2422 9.85938 87.7266 8.29688C88.2109 6.71875 88.9609 5.3125 89.9766 4.07812C90.9609 2.85938 92.2578 1.875 93.8672 1.125C95.4766 0.375 97.3672 0 99.5391 0C101.477 0 102.977 0.367188 104.039 1.10156C105.102 1.83594 105.633 2.79688 105.633 3.98438Z" fill="#321D0B"/>
<path d="M127.547 30.7031C127 31.5938 126.336 32.4375 125.555 33.2344C124.789 34.0156 123.914 34.6875 122.93 35.25C121.883 35.8438 120.82 36.2891 119.742 36.5859C118.68 36.8984 117.453 37.0547 116.062 37.0547C113.75 37.0547 111.75 36.7266 110.062 36.0703C108.391 35.4141 107.008 34.5312 105.914 33.4219C104.82 32.3125 104 31.0078 103.453 29.5078C102.922 27.9922 102.656 26.3516 102.656 24.5859C102.656 22.9922 102.945 21.4688 103.523 20.0156C104.117 18.5469 104.953 17.2422 106.031 16.1016C107.094 14.9922 108.43 14.0938 110.039 13.4062C111.664 12.7188 113.477 12.375 115.477 12.375C117.664 12.375 119.461 12.6406 120.867 13.1719C122.273 13.7031 123.438 14.4375 124.359 15.375C125.25 16.2656 125.898 17.3203 126.305 18.5391C126.711 19.7422 126.914 21.0078 126.914 22.3359V23.8594H111.07C111.07 27.0625 111.688 29.5 112.922 31.1719C114.156 32.8438 116.117 33.6797 118.805 33.6797C120.273 33.6797 121.594 33.2812 122.766 32.4844C123.938 31.6719 124.938 30.6484 125.766 29.4141L127.547 30.7031ZM118.594 21.7969C118.594 20.8594 118.547 19.8984 118.453 18.9141C118.359 17.9297 118.195 17.125 117.961 16.5C117.695 15.7656 117.328 15.2109 116.859 14.8359C116.406 14.4609 115.828 14.2734 115.125 14.2734C113.922 14.2734 112.961 14.8828 112.242 16.1016C111.523 17.3203 111.133 19.25 111.07 21.8906L118.594 21.7969Z" fill="#321D0B"/>
<path d="M155.016 30.7031C154.469 31.5938 153.805 32.4375 153.023 33.2344C152.258 34.0156 151.383 34.6875 150.398 35.25C149.352 35.8438 148.289 36.2891 147.211 36.5859C146.148 36.8984 144.922 37.0547 143.531 37.0547C141.219 37.0547 139.219 36.7266 137.531 36.0703C135.859 35.4141 134.477 34.5312 133.383 33.4219C132.289 32.3125 131.469 31.0078 130.922 29.5078C130.391 27.9922 130.125 26.3516 130.125 24.5859C130.125 22.9922 130.414 21.4688 130.992 20.0156C131.586 18.5469 132.422 17.2422 133.5 16.1016C134.562 14.9922 135.898 14.0938 137.508 13.4062C139.133 12.7188 140.945 12.375 142.945 12.375C145.133 12.375 146.93 12.6406 148.336 13.1719C149.742 13.7031 150.906 14.4375 151.828 15.375C152.719 16.2656 153.367 17.3203 153.773 18.5391C154.18 19.7422 154.383 21.0078 154.383 22.3359V23.8594H138.539C138.539 27.0625 139.156 29.5 140.391 31.1719C141.625 32.8438 143.586 33.6797 146.273 33.6797C147.742 33.6797 149.062 33.2812 150.234 32.4844C151.406 31.6719 152.406 30.6484 153.234 29.4141L155.016 30.7031ZM146.062 21.7969C146.062 20.8594 146.016 19.8984 145.922 18.9141C145.828 17.9297 145.664 17.125 145.43 16.5C145.164 15.7656 144.797 15.2109 144.328 14.8359C143.875 14.4609 143.297 14.2734 142.594 14.2734C141.391 14.2734 140.43 14.8828 139.711 16.1016C138.992 17.3203 138.602 19.25 138.539 21.8906L146.062 21.7969Z" fill="#321D0B"/>
<path d="M79.625 54.75C80.7812 55.8281 81.6641 57.1172 82.2734 58.6172C82.8828 60.1172 83.1875 61.7422 83.1875 63.4922C83.1875 65.2266 82.8828 66.8672 82.2734 68.4141C81.6797 69.9453 80.8047 71.2578 79.6484 72.3516C78.4141 73.5234 76.9375 74.4219 75.2188 75.0469C73.5156 75.6719 71.5625 75.9844 69.3594 75.9844C67.4531 75.9844 65.6953 75.7109 64.0859 75.1641C62.4922 74.6172 61.0781 73.7969 59.8438 72.7031C58.6562 71.6562 57.7188 70.3672 57.0312 68.8359C56.3438 67.2891 56 65.5625 56 63.6562C56 61.7812 56.2969 60.1172 56.8906 58.6641C57.5 57.1953 58.4062 55.8906 59.6094 54.75C60.7656 53.6562 62.1875 52.8125 63.875 52.2188C65.5781 51.6094 67.4766 51.3047 69.5703 51.3047C71.7578 51.3047 73.6797 51.6094 75.3359 52.2188C77.0078 52.8125 78.4375 53.6562 79.625 54.75ZM73.625 70.9922C73.9688 70.1172 74.2188 69.0547 74.375 67.8047C74.5469 66.5547 74.6328 65.1016 74.6328 63.4453C74.6328 62.3516 74.5547 61.1016 74.3984 59.6953C74.2422 58.2891 74.0078 57.1797 73.6953 56.3672C73.3203 55.3828 72.7969 54.6094 72.125 54.0469C71.4688 53.4844 70.6328 53.2031 69.6172 53.2031C68.5078 53.2031 67.6172 53.5078 66.9453 54.1172C66.2891 54.7266 65.7812 55.5156 65.4219 56.4844C65.0938 57.375 64.8672 58.4219 64.7422 59.625C64.6172 60.8125 64.5547 62.0547 64.5547 63.3516C64.5547 65.0547 64.6094 66.4688 64.7188 67.5938C64.8281 68.7031 65.0938 69.8203 65.5156 70.9453C65.875 71.9141 66.3906 72.6797 67.0625 73.2422C67.7344 73.8047 68.5859 74.0859 69.6172 74.0859C70.5547 74.0859 71.3594 73.8281 72.0312 73.3125C72.7031 72.7812 73.2344 72.0078 73.625 70.9922Z" fill="#321D0B"/>
<path d="M84.6875 82.0078C84.375 82.8672 83.9531 83.75 83.4219 84.6562C82.9062 85.5625 82.3281 86.3672 81.6875 87.0703C80.8906 87.9453 80.0234 88.6484 79.0859 89.1797C78.1641 89.6953 77.1797 89.9531 76.1328 89.9531C74.9453 89.9531 73.8594 89.75 72.875 89.3438C71.9062 88.9219 70.9688 88.4453 70.0625 87.9141C69.3438 87.4766 68.5156 87.0234 67.5781 86.5547C66.6406 86.0859 65.8047 85.8516 65.0703 85.8516C64.0391 85.8516 63.1406 86.2266 62.375 86.9766C61.6094 87.7109 60.875 88.8906 60.1719 90.5156L57.7344 89.5312C57.9688 88.8438 58.3359 88.0391 58.8359 87.1172C59.3516 86.1953 59.9844 85.3125 60.7344 84.4688C61.4375 83.6719 62.2656 82.9922 63.2188 82.4297C64.1875 81.8672 65.2109 81.5859 66.2891 81.5859C67.5703 81.5859 68.7031 81.8125 69.6875 82.2656C70.6875 82.7031 71.5938 83.1641 72.4062 83.6484C73.2344 84.1484 74.0469 84.6172 74.8438 85.0547C75.6562 85.4766 76.4922 85.6875 77.3516 85.6875C78.4453 85.6875 79.375 85.2812 80.1406 84.4688C80.9062 83.6406 81.6094 82.4922 82.25 81.0234L84.6875 82.0078Z" fill="#321D0B"/>
<path d="M45.1562 55.8047C44.7188 55.8516 44.0938 55.9375 43.2812 56.0625C42.4688 56.1875 41.7344 56.4922 41.0781 56.9766C40.5 57.3984 40.0859 58.125 39.8359 59.1562C39.6016 60.1719 39.4844 61.6719 39.4844 63.6562V87.4219H35.3125L14.5938 61.7109V77.3203C14.5938 79.2578 14.7188 80.7344 14.9688 81.75C15.2344 82.75 15.6562 83.4844 16.2344 83.9531C16.6562 84.2969 17.3281 84.6016 18.25 84.8672C19.1719 85.1328 19.9062 85.3125 20.4531 85.4062V87.2344H6.15625V85.4062C6.76562 85.3594 7.46094 85.25 8.24219 85.0781C9.03906 84.8906 9.70312 84.6094 10.2344 84.2344C10.8438 83.7812 11.2578 83.1016 11.4766 82.1953C11.7109 81.2734 11.8281 79.7344 11.8281 77.5781V61.8281C11.8281 61.0469 11.7031 60.3125 11.4531 59.625C11.2188 58.9219 10.8438 58.3203 10.3281 57.8203C9.78125 57.2891 9.14844 56.875 8.42969 56.5781C7.72656 56.2656 6.92188 56.0234 6.01562 55.8516V53.9766H18.5312L36.7188 76.4766V63.8906C36.7188 61.8906 36.5859 60.4062 36.3203 59.4375C36.0547 58.4531 35.6328 57.7266 35.0547 57.2578C34.6016 56.8984 33.9297 56.5938 33.0391 56.3438C32.1484 56.0781 31.4297 55.8984 30.8828 55.8047V53.9766H45.1562V55.8047Z" fill="#321D0B"/>
<path d="M150.184 55.8516C149.7 55.8984 149.216 56.0078 148.731 56.1797C148.247 56.3359 147.77 56.5391 147.302 56.7891C146.583 57.1953 146.067 57.6406 145.755 58.125C145.458 58.6094 145.184 59.1953 144.934 59.8828C144.075 62.2578 142.747 66.0625 140.95 71.2969C139.169 76.5312 137.309 81.9688 135.372 87.6094H130.661L121.872 62.8828L113.95 87.6094H109.239C106.63 80.0156 104.63 74.1719 103.239 70.0781C101.848 65.9688 100.677 62.5234 99.7234 59.7422C99.4266 58.8984 99.0906 58.2891 98.7156 57.9141C98.3406 57.5234 97.8562 57.1328 97.2625 56.7422C96.8406 56.4609 96.3875 56.2578 95.9031 56.1328C95.4344 55.9922 94.8875 55.8828 94.2625 55.8047V53.9766H112.005V55.7578C110.958 55.8828 110.177 56.0078 109.661 56.1328C109.145 56.2422 108.739 56.3594 108.442 56.4844C108.161 56.6094 107.989 56.7422 107.927 56.8828C107.864 57.0234 107.833 57.1484 107.833 57.2578C107.833 57.4766 107.856 57.6875 107.903 57.8906C107.966 58.0938 108.028 58.3281 108.091 58.5938C108.466 59.8125 109.223 62.125 110.364 65.5312C111.505 68.9375 112.911 73.1641 114.583 78.2109L122.153 53.9766H127.122L135.911 78.9609C137.208 74.9453 138.239 71.6641 139.005 69.1172C139.786 66.5703 140.442 64.3906 140.973 62.5781C141.286 61.4688 141.536 60.5391 141.723 59.7891C141.911 59.0391 142.005 58.3906 142.005 57.8438C142.005 57.5156 141.848 57.2344 141.536 57C141.239 56.7656 140.833 56.5625 140.317 56.3906C139.88 56.25 139.309 56.1406 138.606 56.0625C137.919 55.9688 137.317 55.8984 136.802 55.8516V53.9766H150.184V55.8516Z" fill="#321D0B"/>
</svg>
