<svg width="22" height="22" viewBox="0 0 22 22" fill="none" xmlns="http://www.w3.org/2000/svg">
<path d="M11 1.83331C16.0627 1.83331 20.1666 5.93723 20.1666 11C20.1666 16.0627 16.0627 20.1666 11 20.1666C5.93723 20.1666 1.83331 16.0627 1.83331 11H3.66665C3.66665 15.0498 6.95015 18.3333 11 18.3333C15.0498 18.3333 18.3333 15.0498 18.3333 11C18.3333 6.95015 15.0498 3.66665 11 3.66665C8.47915 3.66665 6.25531 4.93806 4.93623 6.87498H7.33331V8.70831H1.83331V3.20831H3.66665V5.49998C5.33865 3.27248 8.00156 1.83331 11 1.83331ZM11.9166 6.41665V10.6196L14.8894 13.5923L13.5923 14.8894L10.0833 11.3786V6.41665H11.9166Z" fill="#A3A3A3"/>
</svg>
