<svg width="133" height="133" viewBox="0 0 133 133" fill="none" xmlns="http://www.w3.org/2000/svg">
<path d="M33.25 33.25C51.6135 14.8865 81.3865 14.8865 99.75 33.25V33.25C118.113 51.6135 118.113 81.3865 99.75 99.75L76.3995 123.101C70.9322 128.568 62.0678 128.568 56.6005 123.101L33.25 99.75C14.8865 81.3865 14.8865 51.6135 33.25 33.25V33.25Z" fill="#321D0B"/>
<ellipse cx="66.2699" cy="67.1362" rx="21.2699" ry="25.7693" stroke="white" stroke-width="4.37805"/>
<path d="M65.0683 41.325C66.056 41.4264 68.3878 43.3314 69.8132 50.1403C71.595 58.6514 56.6497 73.9067 64.5506 90.0417" stroke="white" stroke-width="4.37805"/>
<path d="M63.8157 87.9971C65.4519 90.1786 69.7058 93.8872 73.6326 91.2694" stroke="white" stroke-width="4.37805"/>
</svg>