<svg width="24" height="24" viewBox="0 0 24 24" fill="none" xmlns="http://www.w3.org/2000/svg">
<path fill-rule="evenodd" clip-rule="evenodd" d="M11.8445 21.6619C8.15273 21.6619 5 21.0874 5 18.7867C5 16.4859 8.13273 14.3619 11.8445 14.3619C15.5364 14.3619 18.6891 16.4653 18.6891 18.7661C18.6891 21.0659 15.5564 21.6619 11.8445 21.6619Z" stroke="#717171" stroke-width="1.5" stroke-linecap="round" stroke-linejoin="round"/>
<path fill-rule="evenodd" clip-rule="evenodd" d="M11.8373 11.1737C14.26 11.1737 16.2237 9.21002 16.2237 6.7873C16.2237 4.36457 14.26 2.40002 11.8373 2.40002C9.41457 2.40002 7.45002 4.36457 7.45002 6.7873C7.44184 9.20184 9.39184 11.1655 11.8064 11.1737C11.8173 11.1737 11.8273 11.1737 11.8373 11.1737Z" stroke="#717171" stroke-width="1.5" stroke-linecap="round" stroke-linejoin="round"/>
</svg>
