<svg width="20" height="20" viewBox="0 0 20 20" fill="none" xmlns="http://www.w3.org/2000/svg">
<path fill-rule="evenodd" clip-rule="evenodd" d="M10 7.9165C11.1507 7.9165 12.0833 8.8491 12.0833 9.99984C12.0833 11.1506 11.1507 12.0832 10 12.0832C8.84927 12.0832 7.91667 11.1506 7.91667 9.99984C7.91667 8.8491 8.84927 7.9165 10 7.9165Z" stroke="#2D2D2D" stroke-width="1.5" stroke-linecap="round" stroke-linejoin="round"/>
<path fill-rule="evenodd" clip-rule="evenodd" d="M16.8067 6.04179V6.04179C16.2371 5.04825 14.976 4.70828 13.9904 5.28202C13.1331 5.78003 12.0617 5.1569 12.0617 4.16007C12.0617 3.01341 11.1382 2.08325 9.99981 2.08325V2.08325C8.86138 2.08325 7.93789 3.01341 7.93789 4.16007C7.93789 5.1569 6.86648 5.78003 6.01 5.28202C5.02358 4.70828 3.76257 5.04825 3.19294 6.04179C2.62414 7.03534 2.96166 8.30546 3.94808 8.87837C4.80456 9.3772 4.80456 10.6226 3.94808 11.1215C2.96166 11.6952 2.62414 12.9653 3.19294 13.958C3.76257 14.9516 5.02358 15.2916 6.00918 14.7186H6.01C6.86648 14.2198 7.93789 14.8429 7.93789 15.8398V15.8398C7.93789 16.9864 8.86138 17.9166 9.99981 17.9166V17.9166C11.1382 17.9166 12.0617 16.9864 12.0617 15.8398V15.8398C12.0617 14.8429 13.1331 14.2198 13.9904 14.7186C14.976 15.2916 16.2371 14.9516 16.8067 13.958C17.3763 12.9653 17.038 11.6952 16.0524 11.1215H16.0515C15.1951 10.6226 15.1951 9.3772 16.0524 8.87837C17.038 8.30546 17.3763 7.03534 16.8067 6.04179Z" stroke="#2D2D2D" stroke-width="1.5" stroke-linecap="round" stroke-linejoin="round"/>
</svg>
