<svg width="10" height="11" viewBox="0 0 10 11" fill="none" xmlns="http://www.w3.org/2000/svg">
<path d="M4.61958 1.17082C4.73932 0.802296 5.26068 0.802296 5.38042 1.17082L6.25728 3.8695C6.31083 4.03431 6.46441 4.1459 6.6377 4.1459H9.47526C9.86275 4.1459 10.0239 4.64174 9.71038 4.8695L7.41474 6.53738C7.27455 6.63924 7.21588 6.81979 7.26943 6.9846L8.14629 9.68328C8.26603 10.0518 7.84424 10.3583 7.53075 10.1305L5.23511 8.46262C5.09492 8.36076 4.90508 8.36076 4.76489 8.46262L2.46925 10.1305C2.15576 10.3583 1.73397 10.0518 1.85371 9.68328L2.73057 6.9846C2.78412 6.81979 2.72545 6.63924 2.58526 6.53738L0.289621 4.8695C-0.0238649 4.64174 0.137245 4.1459 0.524734 4.1459H3.3623C3.53559 4.1459 3.68917 4.03431 3.74272 3.8695L4.61958 1.17082Z" fill="#FCBC00"/>
</svg>
